<mxfile host="app.diagrams.net" modified="2023-10-17T08:50:29.634Z" agent="Mozilla/5.0 (Linux; Android 10; K) AppleWebKit/537.36 (KHTML, like Gecko) Chrome/117.0.0.0 Mobile Safari/537.36" version="22.0.4" etag="86dkW7dkoGnjQBaTpWkf" type="github">
  <diagram name="Page-1" id="Jl5UAQO1vvPrj05gpP6D">
    <mxGraphModel>
      <root>
        <mxCell id="0" />
        <mxCell id="1" parent="0" />
      </root>
    </mxGraphModel>
  </diagram>
</mxfile>
